<?xml version="1.0" encoding="iso-8859-1"?>
<!-- Uploaded to: SVG Repo, www.svgrepo.com, Generator: SVG Repo Mixer Tools -->
<svg version="1.1" id="Layer_1" xmlns="http://www.w3.org/2000/svg"
	xmlns:xlink="http://www.w3.org/1999/xlink"
	viewBox="0 0 512 512" xml:space="preserve">
<polygon style="fill:#F8F8F9;" points="345.6,0 51.2,0 51.2,512 460.8,512 460.8,115.2 "/>
<polygon style="fill:#EDEDED;" points="345.6,115.2 345.6,0 256,0 256,512 460.8,512 460.8,115.2 "/>
<rect x="51.2" y="230.4" style="fill:#95D5A7;" width="409.6" height="204.8"/>
<rect x="256" y="230.4" style="fill:#80CB93;" width="204.8" height="204.8"/>
<g>
	<path style="fill:#F8F8F9;" d="M214.241,371.2v-81.792h34.904c15.09,0,26.726,13.952,26.726,27.649
		c0,15.744-11.796,27.763-26.15,27.763h-16.589v26.38H214.241z M233.134,328.346h15.438c5.025,0,8.179-4.905,8.179-11.288
		c0-6.577-3.474-11.059-8.87-11.059h-14.747L233.134,328.346L233.134,328.346z"/>
	<path style="fill:#F8F8F9;" d="M347.986,363.136c-6.221,5.76-13.403,8.64-21.542,8.64c-22.506,0-39.283-18.496-39.283-42.049
		c0-23.808,18.938-40.895,40.781-40.895c16.091,0,26.996,7.127,32.717,17.855l-14.054,10.598
		c-4.426-8.006-11.466-11.635-19.354-11.635c-11.633,0-20.966,10.349-20.966,24.769c0,13.74,8.854,24.538,21.772,24.538
		c7.375,0,14.016-3.418,19.931-10.254v-2.533h-15.899v-13.71h31.566v42.74h-15.667L347.986,363.136L347.986,363.136z"/>
	<path style="fill:#F8F8F9;" d="M148.347,351.963c2.452,1.477,7.173,3.685,13.594,3.685c11.018,0,12.902-6.767,12.902-24.653
		v-41.587h18.893v41.587c0,29.005-6.056,41.472-31.795,41.472c-6.911,0-12.827-1.688-17.74-5.07L148.347,351.963z"/>
</g>
</svg>