<svg xmlns="http://www.w3.org/2000/svg" xmlns:xlink="http://www.w3.org/1999/xlink" width="1080"
	zoomAndPan="magnify" viewBox="0 0 810 809.999993" height="1080"
	preserveAspectRatio="xMidYMid meet" version="1.0">
	<defs>
		<g />
		<clipPath id="a766ec5c6b">
			<path
				d="M 267.347656 192.613281 L 503.597656 192.613281 L 503.597656 367.363281 L 267.347656 367.363281 Z M 267.347656 192.613281 "
				clip-rule="nonzero" />
		</clipPath>
		<clipPath id="e5df51355a">
			<path d="M 291 210 L 480 210 L 480 367.363281 L 291 367.363281 Z M 291 210 "
				clip-rule="nonzero" />
		</clipPath>
		<clipPath id="dfaedabccb">
			<path
				d="M 36.148438 434.738281 L 180.148438 434.738281 L 180.148438 617.738281 L 36.148438 617.738281 Z M 36.148438 434.738281 "
				clip-rule="nonzero" />
		</clipPath>
		<clipPath id="323eaf5806">
			<path
				d="M 36.148438 434.738281 L 180.148438 434.738281 L 180.148438 472 L 36.148438 472 Z M 36.148438 434.738281 "
				clip-rule="nonzero" />
		</clipPath>
		<clipPath id="3e1f42ebbc">
			<path
				d="M 591.199219 434.738281 L 774.199219 434.738281 L 774.199219 617.738281 L 591.199219 617.738281 Z M 591.199219 434.738281 "
				clip-rule="nonzero" />
		</clipPath>
	</defs>
	<path fill="#f1f2f3"
		d="M 288.472656 195.480469 L 482.46875 195.480469 C 483.070312 195.480469 483.667969 195.511719 484.269531 195.570312 C 484.867188 195.628906 485.460938 195.71875 486.050781 195.835938 C 486.640625 195.953125 487.222656 196.097656 487.800781 196.273438 C 488.375 196.449219 488.941406 196.648438 489.496094 196.878906 C 490.050781 197.109375 490.59375 197.367188 491.125 197.652344 C 491.65625 197.9375 492.171875 198.246094 492.671875 198.578125 C 493.171875 198.914062 493.652344 199.273438 494.117188 199.65625 C 494.582031 200.035156 495.027344 200.441406 495.453125 200.867188 C 495.878906 201.292969 496.28125 201.738281 496.664062 202.203125 C 497.042969 202.667969 497.402344 203.152344 497.738281 203.652344 C 498.070312 204.152344 498.378906 204.667969 498.664062 205.199219 C 498.945312 205.730469 499.203125 206.273438 499.433594 206.832031 C 499.664062 207.386719 499.867188 207.953125 500.039062 208.53125 C 500.214844 209.105469 500.359375 209.6875 500.476562 210.28125 C 500.59375 210.871094 500.683594 211.464844 500.742188 212.066406 C 500.800781 212.664062 500.832031 213.265625 500.832031 213.867188 L 500.832031 346.085938 C 500.832031 346.6875 500.800781 347.289062 500.742188 347.890625 C 500.683594 348.488281 500.59375 349.082031 500.476562 349.671875 C 500.359375 350.265625 500.214844 350.847656 500.039062 351.425781 C 499.867188 352 499.664062 352.566406 499.433594 353.121094 C 499.203125 353.679688 498.945312 354.222656 498.664062 354.753906 C 498.378906 355.285156 498.070312 355.800781 497.738281 356.300781 C 497.402344 356.800781 497.042969 357.285156 496.664062 357.75 C 496.28125 358.214844 495.878906 358.660156 495.453125 359.085938 C 495.027344 359.511719 494.582031 359.917969 494.117188 360.300781 C 493.652344 360.679688 493.171875 361.039062 492.671875 361.375 C 492.171875 361.707031 491.65625 362.019531 491.125 362.300781 C 490.59375 362.585938 490.050781 362.84375 489.496094 363.074219 C 488.941406 363.304688 488.375 363.507812 487.800781 363.679688 C 487.222656 363.855469 486.640625 364 486.050781 364.121094 C 485.460938 364.238281 484.867188 364.324219 484.269531 364.382812 C 483.667969 364.441406 483.070312 364.472656 482.46875 364.472656 L 288.472656 364.472656 C 287.871094 364.472656 287.269531 364.441406 286.671875 364.382812 C 286.074219 364.324219 285.476562 364.238281 284.886719 364.121094 C 284.296875 364 283.714844 363.855469 283.140625 363.679688 C 282.566406 363.507812 282 363.304688 281.445312 363.074219 C 280.886719 362.84375 280.34375 362.585938 279.816406 362.300781 C 279.285156 362.019531 278.769531 361.707031 278.269531 361.375 C 277.769531 361.039062 277.285156 360.679688 276.820312 360.300781 C 276.355469 359.917969 275.910156 359.511719 275.488281 359.085938 C 275.0625 358.660156 274.65625 358.214844 274.277344 357.75 C 273.894531 357.285156 273.535156 356.800781 273.203125 356.300781 C 272.867188 355.800781 272.558594 355.285156 272.277344 354.753906 C 271.992188 354.222656 271.734375 353.679688 271.507812 353.121094 C 271.277344 352.566406 271.074219 352 270.898438 351.425781 C 270.722656 350.847656 270.578125 350.265625 270.460938 349.671875 C 270.34375 349.082031 270.253906 348.488281 270.195312 347.890625 C 270.136719 347.289062 270.109375 346.6875 270.109375 346.085938 L 270.109375 213.867188 C 270.109375 213.265625 270.136719 212.664062 270.195312 212.066406 C 270.253906 211.464844 270.34375 210.871094 270.460938 210.28125 C 270.578125 209.6875 270.722656 209.105469 270.898438 208.53125 C 271.074219 207.953125 271.277344 207.386719 271.507812 206.832031 C 271.734375 206.273438 271.992188 205.730469 272.277344 205.199219 C 272.558594 204.667969 272.867188 204.152344 273.203125 203.652344 C 273.535156 203.152344 273.894531 202.667969 274.277344 202.203125 C 274.65625 201.738281 275.0625 201.292969 275.488281 200.867188 C 275.910156 200.441406 276.355469 200.035156 276.820312 199.65625 C 277.285156 199.273438 277.769531 198.914062 278.269531 198.578125 C 278.769531 198.246094 279.285156 197.9375 279.816406 197.652344 C 280.34375 197.367188 280.886719 197.109375 281.445312 196.878906 C 282 196.648438 282.566406 196.449219 283.140625 196.273438 C 283.714844 196.097656 284.296875 195.953125 284.886719 195.835938 C 285.476562 195.71875 286.074219 195.628906 286.671875 195.570312 C 287.269531 195.511719 287.871094 195.480469 288.472656 195.480469 Z M 288.472656 195.480469 "
		fill-opacity="1" fill-rule="nonzero" />
	<path fill="#dfe2eb"
		d="M 294.589844 195.480469 L 482.46875 195.480469 C 483.070312 195.480469 483.671875 195.511719 484.269531 195.570312 C 484.867188 195.628906 485.460938 195.71875 486.050781 195.835938 C 486.640625 195.953125 487.222656 196.097656 487.800781 196.273438 C 488.375 196.449219 488.941406 196.648438 489.496094 196.878906 C 490.050781 197.109375 490.59375 197.367188 491.125 197.652344 C 491.65625 197.9375 492.171875 198.246094 492.671875 198.578125 C 493.171875 198.914062 493.652344 199.273438 494.117188 199.65625 C 494.582031 200.035156 495.027344 200.441406 495.453125 200.867188 C 495.878906 201.292969 496.28125 201.738281 496.664062 202.203125 C 497.042969 202.667969 497.402344 203.152344 497.738281 203.652344 C 498.070312 204.152344 498.378906 204.667969 498.664062 205.199219 C 498.945312 205.730469 499.203125 206.273438 499.433594 206.832031 C 499.664062 207.386719 499.867188 207.953125 500.039062 208.53125 C 500.214844 209.105469 500.359375 209.6875 500.476562 210.28125 C 500.59375 210.871094 500.683594 211.464844 500.742188 212.066406 C 500.800781 212.664062 500.832031 213.265625 500.832031 213.867188 L 500.832031 346.085938 C 500.832031 346.6875 500.800781 347.289062 500.742188 347.890625 C 500.683594 348.488281 500.59375 349.082031 500.476562 349.671875 C 500.359375 350.265625 500.214844 350.847656 500.039062 351.425781 C 499.867188 352 499.664062 352.566406 499.433594 353.121094 C 499.203125 353.679688 498.945312 354.222656 498.664062 354.753906 C 498.378906 355.285156 498.070312 355.800781 497.738281 356.300781 C 497.402344 356.800781 497.042969 357.285156 496.664062 357.75 C 496.28125 358.214844 495.878906 358.660156 495.453125 359.085938 C 495.027344 359.511719 494.582031 359.917969 494.117188 360.300781 C 493.652344 360.679688 493.171875 361.039062 492.671875 361.375 C 492.171875 361.707031 491.65625 362.019531 491.125 362.300781 C 490.59375 362.585938 490.050781 362.84375 489.496094 363.074219 C 488.941406 363.304688 488.375 363.507812 487.800781 363.679688 C 487.222656 363.855469 486.640625 364 486.050781 364.121094 C 485.460938 364.238281 484.867188 364.324219 484.269531 364.382812 C 483.671875 364.441406 483.070312 364.472656 482.46875 364.472656 L 294.589844 364.472656 C 293.992188 364.472656 293.390625 364.441406 292.792969 364.382812 C 292.191406 364.324219 291.597656 364.238281 291.007812 364.121094 C 290.417969 364 289.835938 363.855469 289.261719 363.679688 C 288.6875 363.507812 288.121094 363.304688 287.566406 363.074219 C 287.007812 362.84375 286.464844 362.585938 285.9375 362.300781 C 285.40625 362.019531 284.890625 361.707031 284.390625 361.375 C 283.890625 361.039062 283.40625 360.679688 282.941406 360.300781 C 282.476562 359.917969 282.03125 359.511719 281.605469 359.085938 C 281.183594 358.660156 280.777344 358.214844 280.398438 357.75 C 280.015625 357.285156 279.65625 356.800781 279.324219 356.300781 C 278.988281 355.800781 278.679688 355.285156 278.398438 354.753906 C 278.113281 354.222656 277.855469 353.679688 277.625 353.121094 C 277.398438 352.566406 277.195312 352 277.019531 351.425781 C 276.84375 350.847656 276.699219 350.265625 276.582031 349.671875 C 276.464844 349.082031 276.375 348.488281 276.316406 347.890625 C 276.257812 347.289062 276.230469 346.6875 276.230469 346.085938 L 276.230469 213.867188 C 276.230469 213.265625 276.257812 212.664062 276.316406 212.066406 C 276.375 211.464844 276.464844 210.871094 276.582031 210.28125 C 276.699219 209.6875 276.84375 209.105469 277.019531 208.53125 C 277.195312 207.953125 277.398438 207.386719 277.625 206.832031 C 277.855469 206.273438 278.113281 205.730469 278.398438 205.199219 C 278.679688 204.667969 278.988281 204.152344 279.324219 203.652344 C 279.65625 203.152344 280.015625 202.667969 280.398438 202.203125 C 280.777344 201.738281 281.183594 201.292969 281.605469 200.867188 C 282.03125 200.441406 282.476562 200.035156 282.941406 199.65625 C 283.40625 199.273438 283.890625 198.914062 284.390625 198.578125 C 284.890625 198.246094 285.40625 197.9375 285.9375 197.652344 C 286.464844 197.367188 287.007812 197.109375 287.566406 196.878906 C 288.121094 196.648438 288.6875 196.449219 289.261719 196.273438 C 289.835938 196.097656 290.417969 195.953125 291.007812 195.835938 C 291.597656 195.71875 292.191406 195.628906 292.792969 195.570312 C 293.390625 195.511719 293.992188 195.480469 294.589844 195.480469 Z M 294.589844 195.480469 "
		fill-opacity="1" fill-rule="nonzero" />
	<path fill="#a9b0c2"
		d="M 294.589844 201.863281 L 482.464844 201.863281 C 483.066406 201.863281 483.667969 201.890625 484.265625 201.949219 C 484.863281 202.011719 485.457031 202.097656 486.046875 202.214844 C 486.636719 202.332031 487.21875 202.480469 487.796875 202.652344 C 488.371094 202.828125 488.9375 203.03125 489.492188 203.261719 C 490.046875 203.492188 490.589844 203.75 491.121094 204.03125 C 491.652344 204.316406 492.167969 204.625 492.667969 204.960938 C 493.167969 205.292969 493.652344 205.652344 494.117188 206.035156 C 494.582031 206.417969 495.027344 206.820312 495.453125 207.246094 C 495.875 207.671875 496.28125 208.117188 496.660156 208.582031 C 497.042969 209.046875 497.402344 209.53125 497.734375 210.03125 C 498.070312 210.535156 498.378906 211.050781 498.664062 211.582031 C 498.945312 212.113281 499.203125 212.65625 499.433594 213.210938 C 499.664062 213.769531 499.867188 214.335938 500.039062 214.910156 C 500.214844 215.488281 500.359375 216.070312 500.476562 216.660156 C 500.59375 217.25 500.683594 217.847656 500.742188 218.445312 C 500.800781 219.046875 500.832031 219.644531 500.832031 220.25 L 500.832031 237.375 L 276.214844 237.375 L 276.214844 220.25 C 276.214844 219.644531 276.242188 219.042969 276.300781 218.445312 C 276.359375 217.84375 276.449219 217.25 276.566406 216.660156 C 276.683594 216.070312 276.828125 215.484375 277.003906 214.910156 C 277.179688 214.332031 277.382812 213.765625 277.613281 213.207031 C 277.84375 212.652344 278.101562 212.109375 278.382812 211.578125 C 278.667969 211.046875 278.976562 210.53125 279.3125 210.027344 C 279.644531 209.527344 280.003906 209.042969 280.386719 208.578125 C 280.765625 208.113281 281.171875 207.667969 281.597656 207.242188 C 282.023438 206.816406 282.46875 206.414062 282.933594 206.03125 C 283.398438 205.648438 283.882812 205.289062 284.382812 204.957031 C 284.882812 204.621094 285.398438 204.3125 285.929688 204.027344 C 286.460938 203.746094 287.003906 203.488281 287.558594 203.257812 C 288.117188 203.027344 288.683594 202.824219 289.257812 202.652344 C 289.832031 202.476562 290.417969 202.332031 291.007812 202.214844 C 291.597656 202.097656 292.191406 202.007812 292.789062 201.949219 C 293.390625 201.890625 293.988281 201.863281 294.589844 201.863281 Z M 294.589844 201.863281 "
		fill-opacity="1" fill-rule="nonzero" />
	<g clip-path="url(#a766ec5c6b)">
		<path stroke-linecap="butt"
			transform="matrix(0.401104, 0, 0, 0.401605, 267.34871, 192.718222)" fill="none"
			stroke-linejoin="miter"
			d="M 52.66457 6.878025 L 536.320454 6.878025 C 537.820223 6.878025 539.310253 6.955838 540.810021 7.101737 C 542.300051 7.247636 543.780342 7.471348 545.250894 7.763147 C 546.721447 8.054945 548.172521 8.414829 549.613857 8.852527 C 551.045455 9.290224 552.457574 9.786281 553.840478 10.360151 C 555.223381 10.934021 556.577069 11.575977 557.901539 12.286019 C 559.22601 12.996061 560.511526 13.764463 561.758087 14.591225 C 563.004648 15.427713 564.202515 16.322561 565.361427 17.275769 C 566.520339 18.219249 567.630558 19.230817 568.692082 20.291017 C 569.753607 21.351217 570.756699 22.46005 571.711097 23.617517 C 572.655756 24.774983 573.551722 25.981082 574.389255 27.226088 C 575.217049 28.471094 575.986411 29.755006 576.69734 31.077824 C 577.398531 32.400643 578.041289 33.752641 578.615875 35.143546 C 579.190462 36.524724 579.696877 37.935083 580.125383 39.37462 C 580.563627 40.804432 580.923961 42.253696 581.216124 43.73214 C 581.508286 45.200858 581.732278 46.679303 581.878359 48.1772 C 582.02444 49.665371 582.10235 51.163268 582.10235 52.661166 L 582.10235 381.887371 C 582.10235 383.385268 582.02444 384.883166 581.878359 386.381063 C 581.732278 387.869234 581.508286 389.347678 581.216124 390.816396 C 580.923961 392.294841 580.563627 393.744105 580.125383 395.183643 C 579.696877 396.613454 579.190462 398.023812 578.615875 399.40499 C 578.041289 400.795895 577.398531 402.147894 576.69734 403.470712 C 575.986411 404.793531 575.217049 406.077443 574.389255 407.322449 C 573.551722 408.567455 572.655756 409.773554 571.711097 410.93102 C 570.756699 412.088486 569.753607 413.19732 568.692082 414.25752 C 567.630558 415.31772 566.520339 416.329287 565.361427 417.282495 C 564.202515 418.225976 563.004648 419.120824 561.758087 419.957312 C 560.511526 420.784073 559.22601 421.562202 557.901539 422.262518 C 556.577069 422.97256 555.223381 423.614516 553.840478 424.188386 C 552.457574 424.762256 551.045455 425.268039 549.613857 425.69601 C 548.172521 426.133707 546.721447 426.493592 545.250894 426.795117 C 543.780342 427.086915 542.300051 427.3009 540.810021 427.446799 C 539.310253 427.592698 537.820223 427.670511 536.320454 427.670511 L 52.66457 427.670511 C 51.164802 427.670511 49.665033 427.592698 48.175003 427.446799 C 46.684973 427.3009 45.194944 427.086915 43.724391 426.795117 C 42.253839 426.493592 40.802764 426.133707 39.371167 425.69601 C 37.93957 425.268039 36.52745 424.762256 35.144546 424.188386 C 33.751904 423.614516 32.398217 422.97256 31.083485 422.262518 C 29.759014 421.562202 28.473498 420.784073 27.226937 419.957312 C 25.980376 419.120824 24.77277 418.225976 23.613858 417.282495 C 22.454946 416.329287 21.344728 415.31772 20.292942 414.25752 C 19.231418 413.19732 18.218587 412.088486 17.273927 410.93102 C 16.319529 409.773554 15.423564 408.567455 14.595769 407.322449 C 13.758236 406.077443 12.988874 404.793531 12.287684 403.470712 C 11.576755 402.147894 10.933997 400.795895 10.369149 399.40499 C 9.794562 398.023812 9.288147 396.613454 8.849903 395.183643 C 8.411659 393.744105 8.051325 392.294841 7.759162 390.816396 C 7.466999 389.347678 7.243008 387.869234 7.096927 386.381063 C 6.950845 384.883166 6.882674 383.385268 6.882674 381.887371 L 6.882674 52.661166 C 6.882674 51.163268 6.950845 49.665371 7.096927 48.1772 C 7.243008 46.679303 7.466999 45.200858 7.759162 43.73214 C 8.051325 42.253696 8.411659 40.804432 8.849903 39.37462 C 9.288147 37.935083 9.794562 36.524724 10.369149 35.143546 C 10.933997 33.752641 11.576755 32.400643 12.287684 31.077824 C 12.988874 29.755006 13.758236 28.471094 14.595769 27.226088 C 15.423564 25.981082 16.319529 24.774983 17.273927 23.617517 C 18.218587 22.46005 19.231418 21.351217 20.292942 20.291017 C 21.344728 19.230817 22.454946 18.219249 23.613858 17.275769 C 24.77277 16.322561 25.980376 15.427713 27.226937 14.591225 C 28.473498 13.764463 29.759014 12.996061 31.083485 12.286019 C 32.398217 11.575977 33.751904 10.934021 35.144546 10.360151 C 36.52745 9.786281 37.93957 9.290224 39.371167 8.852527 C 40.802764 8.414829 42.253839 8.054945 43.724391 7.763147 C 45.194944 7.471348 46.684973 7.247636 48.175003 7.101737 C 49.665033 6.955838 51.164802 6.878025 52.66457 6.878025 Z M 52.66457 6.878025 "
			stroke="#000000" stroke-width="13.76" stroke-opacity="1" stroke-miterlimit="10" />
	</g>
	<path fill="#f1f2f3"
		d="M 376.800781 257.246094 L 334.773438 330.132812 C 334.335938 330.890625 334.003906 331.699219 333.773438 332.546875 C 333.546875 333.394531 333.433594 334.261719 333.433594 335.140625 C 333.433594 336.019531 333.546875 336.882812 333.773438 337.730469 C 334.003906 338.582031 334.335938 339.386719 334.773438 340.148438 C 335.214844 340.910156 335.742188 341.601562 336.363281 342.222656 C 336.984375 342.84375 337.675781 343.375 338.4375 343.8125 C 339.195312 344.253906 340 344.585938 340.847656 344.8125 C 341.695312 345.042969 342.558594 345.15625 343.4375 345.15625 L 427.488281 345.15625 C 428.367188 345.15625 429.230469 345.042969 430.078125 344.8125 C 430.925781 344.585938 431.730469 344.253906 432.492188 343.8125 C 433.25 343.375 433.941406 342.84375 434.5625 342.222656 C 435.183594 341.601562 435.714844 340.910156 436.152344 340.148438 C 436.59375 339.386719 436.925781 338.582031 437.152344 337.730469 C 437.378906 336.882812 437.492188 336.019531 437.492188 335.140625 C 437.492188 334.261719 437.378906 333.394531 437.152344 332.546875 C 436.925781 331.699219 436.59375 330.890625 436.152344 330.132812 L 394.128906 257.246094 C 393.910156 256.871094 393.667969 256.507812 393.398438 256.164062 C 393.132812 255.816406 392.84375 255.492188 392.535156 255.183594 C 392.226562 254.875 391.898438 254.585938 391.550781 254.324219 C 391.203125 254.058594 390.839844 253.816406 390.460938 253.597656 C 390.082031 253.378906 389.691406 253.1875 389.289062 253.023438 C 388.886719 252.855469 388.472656 252.714844 388.050781 252.601562 C 387.628906 252.488281 387.203125 252.40625 386.769531 252.347656 C 386.335938 252.292969 385.902344 252.261719 385.464844 252.261719 C 385.027344 252.261719 384.59375 252.292969 384.160156 252.347656 C 383.730469 252.40625 383.300781 252.488281 382.878906 252.601562 C 382.457031 252.714844 382.046875 252.855469 381.640625 253.023438 C 381.238281 253.1875 380.847656 253.378906 380.46875 253.597656 C 380.089844 253.816406 379.726562 254.058594 379.382812 254.324219 C 379.035156 254.585938 378.707031 254.875 378.398438 255.183594 C 378.085938 255.492188 377.796875 255.816406 377.53125 256.164062 C 377.265625 256.507812 377.023438 256.871094 376.800781 257.246094 Z M 376.800781 257.246094 "
		fill-opacity="1" fill-rule="nonzero" />
	<path fill="#eb4753"
		d="M 378.660156 261.730469 L 339.515625 330.160156 C 339.296875 330.539062 339.105469 330.929688 338.941406 331.335938 C 338.773438 331.738281 338.636719 332.152344 338.523438 332.574219 C 338.414062 332.996094 338.328125 333.425781 338.273438 333.859375 C 338.21875 334.292969 338.191406 334.726562 338.191406 335.164062 C 338.191406 335.601562 338.222656 336.035156 338.28125 336.46875 C 338.335938 336.902344 338.421875 337.328125 338.539062 337.75 C 338.652344 338.171875 338.792969 338.585938 338.960938 338.988281 C 339.128906 339.394531 339.320312 339.785156 339.539062 340.160156 C 339.757812 340.539062 340 340.902344 340.265625 341.25 C 340.535156 341.59375 340.820312 341.921875 341.128906 342.230469 C 341.4375 342.539062 341.765625 342.828125 342.113281 343.09375 C 342.460938 343.359375 342.820312 343.597656 343.199219 343.816406 C 343.578125 344.035156 343.96875 344.226562 344.371094 344.394531 C 344.777344 344.5625 345.1875 344.703125 345.609375 344.816406 C 346.03125 344.929688 346.457031 345.011719 346.890625 345.070312 C 347.324219 345.125 347.757812 345.15625 348.195312 345.15625 L 426.488281 345.15625 C 426.921875 345.15625 427.359375 345.125 427.789062 345.070312 C 428.222656 345.011719 428.648438 344.929688 429.070312 344.816406 C 429.492188 344.703125 429.90625 344.5625 430.308594 344.394531 C 430.710938 344.226562 431.101562 344.035156 431.480469 343.816406 C 431.859375 343.597656 432.222656 343.359375 432.570312 343.09375 C 432.914062 342.828125 433.242188 342.539062 433.550781 342.230469 C 433.859375 341.921875 434.148438 341.59375 434.414062 341.25 C 434.679688 340.902344 434.921875 340.539062 435.140625 340.160156 C 435.359375 339.785156 435.554688 339.394531 435.722656 338.988281 C 435.890625 338.585938 436.03125 338.171875 436.144531 337.75 C 436.257812 337.328125 436.34375 336.902344 436.402344 336.46875 C 436.460938 336.035156 436.488281 335.601562 436.492188 335.164062 C 436.492188 334.726562 436.464844 334.292969 436.410156 333.859375 C 436.351562 333.425781 436.269531 332.996094 436.15625 332.574219 C 436.046875 332.152344 435.90625 331.738281 435.742188 331.335938 C 435.574219 330.929688 435.382812 330.539062 435.167969 330.160156 L 396.019531 261.730469 C 395.582031 260.964844 395.050781 260.269531 394.429688 259.644531 C 393.808594 259.015625 393.117188 258.484375 392.355469 258.039062 C 391.59375 257.597656 390.789062 257.261719 389.9375 257.03125 C 389.085938 256.804688 388.21875 256.6875 387.339844 256.6875 C 386.457031 256.6875 385.59375 256.804688 384.742188 257.03125 C 383.890625 257.261719 383.082031 257.597656 382.320312 258.039062 C 381.558594 258.484375 380.867188 259.015625 380.246094 259.644531 C 379.625 260.269531 379.097656 260.964844 378.660156 261.730469 Z M 378.660156 261.730469 "
		fill-opacity="1" fill-rule="nonzero" />
	<g clip-path="url(#e5df51355a)">
		<path stroke-linecap="butt"
			transform="matrix(0.401104, 0, 0, 0.401605, 267.34871, 192.718222)" fill="none"
			stroke-linejoin="miter"
			d="M 272.896819 160.67514 L 168.127272 342.163906 C 167.036531 344.050868 166.208737 346.064276 165.63415 348.17495 C 165.069302 350.285623 164.786878 352.44493 164.786878 354.633417 C 164.786878 356.821904 165.069302 358.971484 165.63415 361.082158 C 166.208737 363.202558 167.036531 365.206239 168.127272 367.102928 C 169.227751 368.999616 170.542484 370.721225 172.090946 372.267756 C 173.639408 373.814287 175.363168 375.137105 177.262226 376.226485 C 179.151545 377.325592 181.157729 378.152353 183.271039 378.716497 C 185.394088 379.290367 187.536614 379.572438 189.727835 379.572438 L 399.266928 379.572438 C 401.458149 379.572438 403.610414 379.290367 405.723724 378.716497 C 407.837034 378.152353 409.843218 377.325592 411.742276 376.226485 C 413.631595 375.137105 415.355355 373.814287 416.903817 372.267756 C 418.452279 370.721225 419.77675 368.999616 420.867491 367.102928 C 421.967971 365.206239 422.795765 363.202558 423.360613 361.082158 C 423.925461 358.971484 424.207885 356.821904 424.207885 354.633417 C 424.207885 352.44493 423.925461 350.285623 423.360613 348.17495 C 422.795765 346.064276 421.967971 344.050868 420.867491 342.163906 L 316.097944 160.67514 C 315.552574 159.741386 314.948771 158.836812 314.276797 157.98087 C 313.614561 157.115202 312.893893 156.307894 312.124532 155.539492 C 311.35517 154.77109 310.537114 154.051321 309.670365 153.399638 C 308.803615 152.738229 307.897911 152.135179 306.953252 151.590489 C 306.008592 151.045799 305.034716 150.569195 304.031625 150.160678 C 303.028533 149.742434 301.996224 149.392276 300.944439 149.110204 C 299.892653 148.828133 298.831128 148.623874 297.750126 148.477975 C 296.669124 148.341802 295.588122 148.263989 294.497382 148.263989 C 293.41638 148.263989 292.325639 148.341802 291.244637 148.477975 C 290.173373 148.623874 289.10211 148.828133 288.050324 149.110204 C 286.998539 149.392276 285.975969 149.742434 284.963139 150.160678 C 283.960047 150.569195 282.986171 151.045799 282.041511 151.590489 C 281.096852 152.135179 280.191148 152.738229 279.334137 153.399638 C 278.467388 154.051321 277.649332 154.77109 276.87997 155.539492 C 276.10087 156.307894 275.38994 157.115202 274.717966 157.98087 C 274.055731 158.836812 273.451928 159.741386 272.896819 160.67514 Z M 272.896819 160.67514 "
			stroke="#000000" stroke-width="7.37" stroke-opacity="1" stroke-miterlimit="10" />
	</g>
	<path fill="#000000"
		d="M 380.253906 314.175781 L 380.253906 281.902344 C 380.253906 281.597656 380.285156 281.300781 380.34375 281 C 380.402344 280.703125 380.492188 280.414062 380.605469 280.136719 C 380.722656 279.855469 380.867188 279.589844 381.035156 279.335938 C 381.203125 279.085938 381.394531 278.851562 381.609375 278.636719 C 381.824219 278.425781 382.054688 278.234375 382.308594 278.066406 C 382.558594 277.898438 382.828125 277.753906 383.105469 277.640625 C 383.386719 277.523438 383.675781 277.4375 383.972656 277.378906 C 384.269531 277.320312 384.570312 277.292969 384.871094 277.292969 L 386.074219 277.292969 C 386.378906 277.292969 386.675781 277.320312 386.972656 277.378906 C 387.269531 277.441406 387.558594 277.527344 387.835938 277.644531 C 388.117188 277.757812 388.382812 277.902344 388.632812 278.070312 C 388.886719 278.238281 389.117188 278.429688 389.332031 278.640625 C 389.546875 278.855469 389.734375 279.089844 389.902344 279.339844 C 390.070312 279.59375 390.214844 279.859375 390.328125 280.136719 C 390.445312 280.417969 390.53125 280.707031 390.589844 281.003906 C 390.652344 281.300781 390.679688 281.601562 390.679688 281.902344 L 390.679688 314.175781 C 390.679688 314.476562 390.652344 314.777344 390.589844 315.074219 C 390.53125 315.371094 390.445312 315.660156 390.328125 315.941406 C 390.214844 316.21875 390.070312 316.484375 389.902344 316.738281 C 389.734375 316.988281 389.546875 317.222656 389.332031 317.4375 C 389.117188 317.648438 388.886719 317.839844 388.632812 318.007812 C 388.382812 318.175781 388.117188 318.320312 387.835938 318.433594 C 387.558594 318.550781 387.269531 318.636719 386.972656 318.699219 C 386.675781 318.757812 386.378906 318.785156 386.074219 318.785156 L 384.871094 318.785156 C 384.570312 318.785156 384.269531 318.757812 383.972656 318.699219 C 383.675781 318.640625 383.386719 318.554688 383.105469 318.4375 C 382.828125 318.324219 382.558594 318.179688 382.308594 318.011719 C 382.054688 317.84375 381.824219 317.652344 381.609375 317.441406 C 381.394531 317.226562 381.203125 316.992188 381.035156 316.742188 C 380.867188 316.488281 380.722656 316.222656 380.605469 315.941406 C 380.492188 315.664062 380.402344 315.375 380.34375 315.078125 C 380.285156 314.777344 380.253906 314.480469 380.253906 314.175781 Z M 380.253906 328.007812 C 380.253906 327.703125 380.285156 327.402344 380.34375 327.105469 C 380.402344 326.808594 380.492188 326.519531 380.605469 326.238281 C 380.722656 325.960938 380.867188 325.695312 381.035156 325.441406 C 381.203125 325.191406 381.394531 324.957031 381.609375 324.742188 C 381.824219 324.527344 382.054688 324.335938 382.308594 324.167969 C 382.558594 324 382.828125 323.859375 383.105469 323.742188 C 383.386719 323.628906 383.675781 323.542969 383.972656 323.484375 C 384.269531 323.425781 384.570312 323.394531 384.871094 323.394531 L 386.074219 323.394531 C 386.378906 323.394531 386.675781 323.425781 386.972656 323.484375 C 387.269531 323.542969 387.558594 323.632812 387.835938 323.746094 C 388.117188 323.863281 388.382812 324.003906 388.632812 324.171875 C 388.886719 324.339844 389.117188 324.53125 389.332031 324.746094 C 389.546875 324.960938 389.734375 325.195312 389.902344 325.445312 C 390.070312 325.695312 390.214844 325.960938 390.328125 326.242188 C 390.445312 326.523438 390.53125 326.808594 390.589844 327.105469 C 390.652344 327.402344 390.679688 327.703125 390.679688 328.007812 C 390.679688 328.308594 390.652344 328.609375 390.589844 328.90625 C 390.53125 329.203125 390.445312 329.492188 390.328125 329.769531 C 390.214844 330.050781 390.070312 330.316406 389.902344 330.566406 C 389.734375 330.820312 389.546875 331.054688 389.332031 331.265625 C 389.117188 331.480469 388.886719 331.671875 388.632812 331.839844 C 388.382812 332.007812 388.117188 332.148438 387.835938 332.265625 C 387.558594 332.382812 387.269531 332.46875 386.972656 332.527344 C 386.675781 332.585938 386.378906 332.617188 386.074219 332.617188 L 384.871094 332.617188 C 384.570312 332.617188 384.269531 332.589844 383.972656 332.53125 C 383.675781 332.472656 383.386719 332.386719 383.105469 332.269531 C 382.828125 332.152344 382.558594 332.011719 382.308594 331.84375 C 382.054688 331.675781 381.824219 331.484375 381.609375 331.269531 C 381.394531 331.058594 381.203125 330.824219 381.035156 330.570312 C 380.867188 330.320312 380.722656 330.054688 380.605469 329.773438 C 380.492188 329.492188 380.402344 329.203125 380.34375 328.90625 C 380.285156 328.609375 380.253906 328.308594 380.253906 328.007812 Z M 380.253906 328.007812 "
		fill-opacity="1" fill-rule="nonzero" />
	<path fill="#000000"
		d="M 311.871094 229.089844 L 311.871094 210.148438 L 315.882812 210.148438 L 326.945312 223.351562 L 326.945312 210.148438 L 330.785156 210.148438 L 330.785156 229.089844 L 326.773438 229.089844 L 315.65625 215.839844 L 315.65625 229.089844 Z M 311.871094 229.089844 "
		fill-opacity="1" fill-rule="nonzero" />
	<path fill="#000000"
		d="M 335.453125 228.578125 C 334.890625 228.238281 334.4375 227.785156 334.101562 227.21875 C 333.75 226.65625 333.582031 226.042969 333.585938 225.378906 L 333.585938 217.542969 C 333.582031 216.878906 333.753906 216.261719 334.101562 215.699219 C 334.4375 215.136719 334.890625 214.683594 335.453125 214.34375 C 336.015625 213.996094 336.628906 213.824219 337.292969 213.832031 L 345.316406 213.832031 C 345.984375 213.824219 346.609375 213.996094 347.179688 214.34375 C 347.742188 214.683594 348.1875 215.132812 348.519531 215.699219 C 348.859375 216.265625 349.027344 216.878906 349.019531 217.542969 L 349.019531 225.378906 C 349.027344 226.039062 348.859375 226.652344 348.519531 227.21875 C 348.1875 227.785156 347.742188 228.238281 347.179688 228.578125 C 346.609375 228.925781 345.984375 229.097656 345.316406 229.089844 L 337.292969 229.089844 C 336.628906 229.097656 336.015625 228.925781 335.453125 228.578125 Z M 337.457031 225.363281 L 345.164062 225.363281 C 345.207031 225.363281 345.242188 225.347656 345.265625 225.3125 C 345.300781 225.285156 345.320312 225.25 345.324219 225.207031 L 345.324219 217.726562 C 345.320312 217.683594 345.300781 217.644531 345.265625 217.617188 C 345.238281 217.585938 345.203125 217.570312 345.164062 217.566406 L 337.472656 217.566406 C 337.433594 217.570312 337.398438 217.585938 337.371094 217.617188 C 337.335938 217.644531 337.320312 217.683594 337.316406 217.726562 L 337.316406 225.195312 C 337.320312 225.238281 337.335938 225.273438 337.371094 225.300781 C 337.398438 225.332031 337.433594 225.351562 337.472656 225.351562 Z M 337.457031 225.363281 "
		fill-opacity="1" fill-rule="nonzero" />
	<path fill="#000000"
		d="M 353.214844 228.578125 C 352.652344 228.234375 352.199219 227.785156 351.859375 227.21875 C 351.515625 226.65625 351.34375 226.042969 351.347656 225.378906 L 351.347656 209.226562 L 355.082031 209.226562 L 355.082031 213.832031 L 360.886719 213.832031 L 360.886719 217.566406 L 355.082031 217.566406 L 355.082031 225.195312 C 355.09375 225.289062 355.148438 225.339844 355.238281 225.351562 L 360.886719 225.351562 L 360.886719 229.089844 L 355.082031 229.089844 C 354.410156 229.097656 353.789062 228.925781 353.214844 228.578125 Z M 353.214844 228.578125 "
		fill-opacity="1" fill-rule="nonzero" />
	<path fill="#000000"
		d="M 371.449219 229.089844 L 371.449219 210.148438 L 388.882812 210.148438 L 388.882812 213.964844 L 375.285156 213.964844 L 375.285156 217.699219 L 386.242188 217.699219 L 386.242188 221.539062 L 375.285156 221.539062 L 375.285156 229.089844 Z M 371.449219 229.089844 "
		fill-opacity="1" fill-rule="nonzero" />
	<path fill="#000000"
		d="M 392.128906 228.578125 C 391.566406 228.238281 391.113281 227.785156 390.777344 227.21875 C 390.429688 226.65625 390.257812 226.042969 390.261719 225.378906 L 390.261719 217.542969 C 390.257812 216.878906 390.429688 216.261719 390.777344 215.699219 C 391.113281 215.136719 391.566406 214.683594 392.128906 214.34375 C 392.691406 213.996094 393.304688 213.828125 393.96875 213.832031 L 401.992188 213.832031 C 402.664062 213.824219 403.285156 213.996094 403.859375 214.34375 C 404.421875 214.683594 404.867188 215.132812 405.199219 215.699219 C 405.550781 216.261719 405.726562 216.878906 405.730469 217.542969 L 405.730469 225.378906 C 405.734375 226.039062 405.570312 226.652344 405.230469 227.21875 C 404.898438 227.785156 404.453125 228.238281 403.890625 228.578125 C 403.316406 228.925781 402.695312 229.097656 402.023438 229.089844 L 394 229.089844 C 393.328125 229.101562 392.703125 228.929688 392.128906 228.578125 Z M 394.152344 225.363281 L 401.828125 225.363281 C 401.867188 225.363281 401.902344 225.34375 401.929688 225.3125 C 401.964844 225.285156 401.980469 225.25 401.984375 225.207031 L 401.984375 217.726562 C 401.980469 217.683594 401.964844 217.644531 401.929688 217.617188 C 401.902344 217.585938 401.867188 217.570312 401.828125 217.566406 L 394.152344 217.566406 C 394.113281 217.570312 394.078125 217.585938 394.050781 217.617188 C 394.015625 217.644531 393.996094 217.683594 393.992188 217.726562 L 393.992188 225.195312 C 393.996094 225.238281 394.015625 225.273438 394.050781 225.300781 C 394.074219 225.332031 394.109375 225.351562 394.152344 225.351562 Z M 394.152344 225.363281 "
		fill-opacity="1" fill-rule="nonzero" />
	<path fill="#000000"
		d="M 409.667969 228.578125 C 409.101562 228.242188 408.652344 227.789062 408.316406 227.21875 C 407.976562 226.652344 407.808594 226.039062 407.816406 225.378906 L 407.816406 213.832031 L 411.550781 213.832031 L 411.550781 225.195312 C 411.5625 225.289062 411.613281 225.339844 411.707031 225.351562 L 419.367188 225.351562 C 419.410156 225.351562 419.445312 225.332031 419.472656 225.300781 C 419.503906 225.273438 419.523438 225.238281 419.523438 225.195312 L 419.523438 213.832031 L 423.253906 213.832031 L 423.253906 225.378906 C 423.261719 226.039062 423.09375 226.652344 422.757812 227.21875 C 422.425781 227.785156 421.976562 228.238281 421.417969 228.578125 C 420.84375 228.925781 420.222656 229.097656 419.550781 229.089844 L 411.519531 229.089844 C 410.855469 229.09375 410.238281 228.921875 409.667969 228.578125 Z M 409.667969 228.578125 "
		fill-opacity="1" fill-rule="nonzero" />
	<path fill="#000000"
		d="M 426.128906 229.089844 L 426.128906 213.832031 L 437.878906 213.832031 C 438.546875 213.824219 439.171875 213.996094 439.742188 214.34375 C 440.304688 214.683594 440.75 215.132812 441.082031 215.699219 C 441.421875 216.265625 441.585938 216.878906 441.578125 217.542969 L 441.578125 229.089844 L 437.851562 229.089844 L 437.851562 217.726562 C 437.851562 217.6875 437.839844 217.648438 437.816406 217.617188 C 437.789062 217.582031 437.75 217.5625 437.703125 217.566406 L 430.019531 217.566406 C 429.925781 217.578125 429.875 217.632812 429.863281 217.726562 L 429.863281 229.089844 Z M 426.128906 229.089844 "
		fill-opacity="1" fill-rule="nonzero" />
	<path fill="#000000"
		d="M 445.4375 228.578125 C 444.878906 228.238281 444.433594 227.785156 444.097656 227.21875 C 443.761719 226.652344 443.59375 226.039062 443.601562 225.378906 L 443.601562 217.542969 C 443.597656 216.878906 443.761719 216.265625 444.097656 215.699219 C 444.433594 215.132812 444.878906 214.683594 445.4375 214.34375 C 446.019531 213.992188 446.652344 213.820312 447.332031 213.832031 L 455.355469 213.832031 L 455.355469 208.832031 L 459.078125 208.832031 L 459.078125 229.089844 L 447.335938 229.089844 C 446.65625 229.101562 446.023438 228.929688 445.4375 228.578125 Z M 447.515625 225.363281 L 455.191406 225.363281 C 455.230469 225.363281 455.265625 225.34375 455.292969 225.3125 C 455.328125 225.285156 455.34375 225.25 455.347656 225.207031 L 455.347656 217.726562 C 455.34375 217.683594 455.328125 217.644531 455.292969 217.617188 C 455.265625 217.585938 455.230469 217.570312 455.191406 217.566406 L 447.519531 217.566406 C 447.425781 217.578125 447.375 217.632812 447.363281 217.726562 L 447.363281 225.195312 C 447.378906 225.289062 447.429688 225.339844 447.519531 225.351562 Z M 447.515625 225.363281 "
		fill-opacity="1" fill-rule="nonzero" />
	<g clip-path="url(#dfaedabccb)">
		<path fill="#364462"
			d="M 46.878906 434.808594 L 169.382812 434.808594 C 172.339844 434.808594 175.027344 436.019531 176.972656 437.964844 C 178.917969 439.914062 180.128906 442.601562 180.128906 445.5625 L 180.128906 606.949219 C 180.128906 609.90625 178.917969 612.59375 176.972656 614.542969 C 175.027344 616.492188 172.339844 617.699219 169.382812 617.699219 L 46.878906 617.699219 C 43.921875 617.699219 41.238281 616.492188 39.292969 614.542969 C 37.34375 612.59375 36.136719 609.90625 36.136719 606.949219 L 36.136719 445.5625 C 36.136719 442.601562 37.34375 439.914062 39.292969 437.964844 C 41.238281 436.019531 43.921875 434.808594 46.878906 434.808594 Z M 46.878906 434.808594 "
			fill-opacity="1" fill-rule="evenodd" />
	</g>
	<path fill="#ffffff"
		d="M 169.382812 438.800781 L 46.878906 438.800781 C 45.023438 438.800781 43.335938 439.5625 42.113281 440.785156 C 40.886719 442.015625 40.128906 443.703125 40.128906 445.558594 L 40.128906 606.945312 C 40.128906 608.800781 40.890625 610.492188 42.113281 611.714844 C 43.339844 612.941406 45.027344 613.699219 46.878906 613.699219 L 169.382812 613.699219 C 171.238281 613.699219 172.925781 612.9375 174.148438 611.714844 C 175.375 610.488281 176.132812 608.796875 176.132812 606.945312 L 176.132812 445.5625 C 176.132812 443.703125 175.371094 442.015625 174.148438 440.789062 C 172.925781 439.5625 171.238281 438.800781 169.382812 438.800781 Z M 169.382812 438.800781 "
		fill-opacity="1" fill-rule="nonzero" />
	<g clip-path="url(#323eaf5806)">
		<path fill="#364462"
			d="M 46.878906 434.808594 L 169.382812 434.808594 C 172.339844 434.808594 175.027344 436.019531 176.972656 437.964844 C 178.917969 439.914062 180.128906 442.601562 180.128906 445.5625 L 180.128906 471.910156 L 36.136719 471.910156 L 36.136719 445.5625 C 36.136719 442.601562 37.34375 439.914062 39.292969 437.964844 C 41.238281 436.019531 43.921875 434.808594 46.878906 434.808594 Z M 46.878906 434.808594 "
			fill-opacity="1" fill-rule="nonzero" />
	</g>
	<path fill="#ef5350"
		d="M 79.789062 445 C 82.09375 445 84.183594 445.933594 85.695312 447.445312 C 87.203125 448.957031 88.140625 451.046875 88.140625 453.355469 C 88.140625 455.664062 87.203125 457.753906 85.695312 459.265625 C 84.183594 460.777344 82.09375 461.714844 79.789062 461.714844 C 77.484375 461.714844 75.394531 460.777344 73.882812 459.265625 C 72.371094 457.753906 71.4375 455.664062 71.4375 453.355469 C 71.4375 451.046875 72.371094 448.957031 73.882812 447.445312 C 75.394531 445.933594 77.484375 445 79.789062 445 Z M 79.789062 445 "
		fill-opacity="1" fill-rule="evenodd" />
	<path fill="#98db7c"
		d="M 100.738281 445 C 103.042969 445 105.132812 445.933594 106.640625 447.445312 C 108.152344 448.957031 109.085938 451.046875 109.085938 453.355469 C 109.085938 455.664062 108.152344 457.753906 106.640625 459.265625 C 105.132812 460.777344 103.042969 461.714844 100.738281 461.714844 C 98.429688 461.714844 96.339844 460.777344 94.832031 459.265625 C 93.320312 457.753906 92.386719 455.664062 92.386719 453.355469 C 92.386719 451.046875 93.320312 448.957031 94.832031 447.445312 C 96.339844 445.933594 98.429688 445 100.738281 445 Z M 100.738281 445 "
		fill-opacity="1" fill-rule="evenodd" />
	<path fill="#f9eab0"
		d="M 58.839844 445 C 61.144531 445 63.234375 445.933594 64.746094 447.445312 C 66.253906 448.957031 67.191406 451.046875 67.191406 453.355469 C 67.191406 455.664062 66.253906 457.753906 64.746094 459.265625 C 63.234375 460.777344 61.144531 461.714844 58.839844 461.714844 C 56.535156 461.714844 54.445312 460.777344 52.933594 459.265625 C 51.425781 457.753906 50.488281 455.664062 50.488281 453.355469 C 50.488281 451.046875 51.425781 448.957031 52.933594 447.445312 C 54.445312 445.933594 56.535156 445 58.839844 445 Z M 58.839844 445 "
		fill-opacity="1" fill-rule="evenodd" />
	<path fill="#b5d5f5"
		d="M 76.335938 540.824219 C 77.4375 540.824219 78.332031 541.714844 78.332031 542.820312 C 78.332031 543.921875 77.441406 544.820312 76.335938 544.820312 L 68.359375 544.820312 C 67.257812 544.820312 66.363281 543.925781 66.363281 542.820312 C 66.363281 541.71875 67.253906 540.824219 68.359375 540.824219 Z M 141.921875 517.613281 C 141.921875 518.714844 141.03125 519.613281 139.925781 519.613281 C 138.828125 519.613281 137.929688 518.71875 137.929688 517.613281 L 137.929688 509.628906 C 137.929688 508.527344 138.824219 507.632812 139.925781 507.632812 C 141.027344 507.632812 141.921875 508.523438 141.921875 509.628906 Z M 141.921875 497.648438 C 141.921875 498.75 141.03125 499.644531 139.925781 499.644531 C 138.828125 499.644531 137.929688 498.753906 137.929688 497.648438 L 137.929688 489.660156 C 137.929688 488.558594 138.824219 487.660156 139.925781 487.660156 C 141.027344 487.660156 141.921875 488.554688 141.921875 489.660156 Z M 129.707031 485.917969 C 130.804688 485.917969 131.703125 486.808594 131.703125 487.914062 C 131.703125 489.015625 130.808594 489.914062 129.707031 489.914062 L 121.726562 489.914062 C 120.628906 489.914062 119.730469 489.019531 119.730469 487.914062 C 119.730469 486.8125 120.625 485.917969 121.726562 485.917969 Z M 109.757812 485.917969 C 110.855469 485.917969 111.753906 486.808594 111.753906 487.914062 C 111.753906 489.015625 110.859375 489.914062 109.757812 489.914062 L 101.777344 489.914062 C 100.675781 489.914062 99.78125 489.019531 99.78125 487.914062 C 99.78125 486.8125 100.671875 485.917969 101.777344 485.917969 Z M 89.800781 485.917969 C 90.902344 485.917969 91.796875 486.808594 91.796875 487.914062 C 91.796875 489.015625 90.90625 489.914062 89.800781 489.914062 L 81.824219 489.914062 C 80.722656 489.914062 79.828125 489.019531 79.828125 487.914062 C 79.828125 486.8125 80.71875 485.917969 81.824219 485.917969 Z M 69.851562 485.917969 C 70.953125 485.917969 71.847656 486.808594 71.847656 487.914062 C 71.847656 489.015625 70.957031 489.914062 69.851562 489.914062 L 61.871094 489.914062 C 60.773438 489.914062 59.875 489.019531 59.875 487.914062 C 59.875 486.8125 60.769531 485.917969 61.871094 485.917969 Z M 54.640625 494.652344 C 54.640625 493.550781 55.53125 492.652344 56.636719 492.652344 C 57.734375 492.652344 58.632812 493.546875 58.632812 494.652344 L 58.632812 502.636719 C 58.632812 503.734375 57.738281 504.632812 56.636719 504.632812 C 55.535156 504.632812 54.640625 503.738281 54.640625 502.636719 Z M 54.640625 514.617188 C 54.640625 513.515625 55.53125 512.617188 56.636719 512.617188 C 57.734375 512.617188 58.632812 513.511719 58.632812 514.617188 L 58.632812 522.601562 C 58.632812 523.703125 57.738281 524.597656 56.636719 524.597656 C 55.535156 524.597656 54.640625 523.707031 54.640625 522.601562 Z M 54.640625 534.582031 C 54.640625 533.480469 55.53125 532.582031 56.636719 532.582031 C 57.734375 532.582031 58.632812 533.476562 58.632812 534.582031 L 58.632812 542.566406 C 58.632812 543.667969 57.738281 544.566406 56.636719 544.566406 C 55.535156 544.566406 54.640625 543.671875 54.640625 542.566406 Z M 54.640625 534.582031 "
		fill-opacity="1" fill-rule="evenodd" />
	<path fill="#5c9cee"
		d="M 76.335938 578.761719 C 75.238281 578.761719 74.339844 577.867188 74.339844 576.761719 L 74.339844 521.855469 C 74.339844 520.753906 75.230469 519.859375 76.335938 519.859375 L 159.632812 519.859375 C 160.730469 519.859375 161.628906 520.75 161.628906 521.855469 L 161.628906 576.761719 C 161.628906 577.863281 160.734375 578.761719 159.632812 578.761719 Z M 76.335938 578.761719 "
		fill-opacity="1" fill-rule="evenodd" />
	<path fill="#ddedfc"
		d="M 122.382812 552.878906 L 146.785156 568.917969 C 147.703125 569.519531 147.957031 570.753906 147.351562 571.667969 C 147.171875 571.933594 146.945312 572.148438 146.6875 572.296875 L 146.6875 572.300781 L 140.9375 575.621094 L 150.480469 592.164062 C 151.027344 593.113281 150.699219 594.328125 149.753906 594.875 L 149.753906 594.878906 L 141.871094 599.433594 C 140.921875 599.984375 139.703125 599.660156 139.152344 598.710938 L 129.609375 582.167969 L 123.867188 585.488281 C 122.917969 586.039062 121.699219 585.714844 121.148438 584.761719 C 120.980469 584.476562 120.894531 584.15625 120.882812 583.84375 L 119.199219 554.585938 C 119.140625 553.488281 119.980469 552.550781 121.078125 552.484375 C 121.570312 552.457031 122.023438 552.609375 122.382812 552.878906 Z M 122.382812 552.878906 "
		fill-opacity="1" fill-rule="evenodd" />
	<g clip-path="url(#3e1f42ebbc)">
		<path fill="#ab47bc"
			d="M 614.078125 434.738281 L 751.332031 434.738281 C 763.914062 434.738281 774.207031 445.03125 774.207031 457.613281 L 774.207031 594.867188 C 774.207031 607.449219 763.914062 617.746094 751.332031 617.746094 L 614.078125 617.746094 C 601.496094 617.746094 591.199219 607.449219 591.199219 594.867188 L 591.199219 457.613281 C 591.199219 445.03125 601.496094 434.738281 614.078125 434.738281 "
			fill-opacity="1" fill-rule="evenodd" />
	</g>
	<path fill="#fffffe"
		d="M 619.796875 471.910156 L 748.472656 471.910156 L 748.472656 494.789062 L 616.933594 494.789062 L 616.933594 471.910156 Z M 649.820312 480.488281 L 649.820312 486.207031 L 738.464844 486.207031 L 738.464844 480.488281 Z M 626.945312 480.488281 L 626.945312 486.207031 L 644.101562 486.207031 L 644.101562 480.488281 L 626.945312 480.488281 "
		fill-opacity="1" fill-rule="evenodd" />
	<path fill="#fffffe"
		d="M 717.929688 551.960938 L 736.285156 566.960938 L 739.679688 569.734375 L 735.773438 571.71875 L 718.710938 580.390625 L 714.820312 582.371094 L 714.578125 578 L 713.28125 554.328125 L 712.929688 547.875 L 717.929688 551.960938 "
		fill-opacity="1" fill-rule="nonzero" />
	<path fill="#fffffe"
		d="M 728.503906 572.226562 L 737.753906 590.421875 L 732.660156 592.992188 L 723.410156 574.792969 L 728.503906 572.226562 "
		fill-opacity="1" fill-rule="nonzero" />
	<path fill="#fffffe"
		d="M 649.972656 460.472656 L 738.617188 460.472656 L 738.617188 466.191406 L 649.972656 466.191406 L 649.972656 460.472656 "
		fill-opacity="1" fill-rule="nonzero" />
	<path fill="#fffffe"
		d="M 627.097656 460.472656 L 644.253906 460.472656 L 644.253906 466.191406 L 627.097656 466.191406 L 627.097656 460.472656 "
		fill-opacity="1" fill-rule="nonzero" />
	<path fill="#fffffe"
		d="M 649.972656 500.503906 L 738.617188 500.503906 L 738.617188 506.226562 L 649.972656 506.226562 L 649.972656 500.503906 "
		fill-opacity="1" fill-rule="nonzero" />
	<path fill="#fffffe"
		d="M 627.097656 500.503906 L 644.253906 500.503906 L 644.253906 506.226562 L 627.097656 506.226562 L 627.097656 500.503906 "
		fill-opacity="1" fill-rule="nonzero" />
	<path fill="#fffffe"
		d="M 649.972656 520.523438 L 738.617188 520.523438 L 738.617188 526.242188 L 649.972656 526.242188 L 649.972656 520.523438 "
		fill-opacity="1" fill-rule="nonzero" />
	<path fill="#fffffe"
		d="M 627.097656 520.523438 L 644.253906 520.523438 L 644.253906 526.242188 L 627.097656 526.242188 L 627.097656 520.523438 "
		fill-opacity="1" fill-rule="nonzero" />
	<path fill="#fffffe"
		d="M 649.972656 540.539062 L 738.617188 540.539062 L 738.617188 546.257812 L 649.972656 546.257812 L 649.972656 540.539062 "
		fill-opacity="1" fill-rule="nonzero" />
	<path fill="#fffffe"
		d="M 627.097656 540.539062 L 644.253906 540.539062 L 644.253906 546.257812 L 627.097656 546.257812 L 627.097656 540.539062 "
		fill-opacity="1" fill-rule="nonzero" />
	<g fill="#000000" fill-opacity="1">
		<g transform="translate(263.401118, 500.969284)">
			<g>
				<path
					d="M 12.0625 -24.625 C 16.050781 -24.625 19.097656 -23.585938 21.203125 -21.515625 C 23.304688 -19.453125 24.359375 -16.382812 24.359375 -12.3125 C 24.359375 -8.25 23.304688 -5.179688 21.203125 -3.109375 C 19.097656 -1.035156 16.050781 0 12.0625 0 L 3.203125 0 L 3.203125 -24.625 Z M 11.765625 -4.09375 C 14.304688 -4.09375 16.203125 -4.738281 17.453125 -6.03125 C 18.710938 -7.332031 19.34375 -9.425781 19.34375 -12.3125 C 19.34375 -15.195312 18.710938 -17.285156 17.453125 -18.578125 C 16.203125 -19.878906 14.304688 -20.53125 11.765625 -20.53125 L 8.0625 -20.53125 L 8.0625 -4.09375 Z M 11.765625 -4.09375 " />
			</g>
		</g>
	</g>
	<g fill="#000000" fill-opacity="1">
		<g transform="translate(289.713049, 500.969284)">
			<g>
				<path
					d="M 2.671875 0 L 2.671875 -18.578125 L 7.203125 -18.578125 L 7.203125 -15.8125 L 7.5625 -15.75 C 8.007812 -16.78125 8.597656 -17.535156 9.328125 -18.015625 C 10.054688 -18.492188 10.941406 -18.734375 11.984375 -18.734375 C 13.046875 -18.734375 13.847656 -18.554688 14.390625 -18.203125 L 13.609375 -14.171875 L 13.25 -14.109375 C 12.945312 -14.234375 12.65625 -14.320312 12.375 -14.375 C 12.09375 -14.4375 11.75 -14.46875 11.34375 -14.46875 C 10.039062 -14.46875 9.046875 -14.007812 8.359375 -13.09375 C 7.679688 -12.175781 7.34375 -10.707031 7.34375 -8.6875 L 7.34375 0 Z M 2.671875 0 " />
			</g>
		</g>
	</g>
	<g fill="#000000" fill-opacity="1">
		<g transform="translate(304.274675, 500.969284)">
			<g>
				<path
					d="M 7.234375 0.359375 C 6.046875 0.359375 5.015625 0.140625 4.140625 -0.296875 C 3.265625 -0.734375 2.59375 -1.375 2.125 -2.21875 C 1.65625 -3.070312 1.421875 -4.09375 1.421875 -5.28125 C 1.421875 -6.382812 1.65625 -7.304688 2.125 -8.046875 C 2.59375 -8.796875 3.320312 -9.410156 4.3125 -9.890625 C 5.300781 -10.367188 6.59375 -10.738281 8.1875 -11 C 9.289062 -11.175781 10.128906 -11.367188 10.703125 -11.578125 C 11.285156 -11.796875 11.675781 -12.039062 11.875 -12.3125 C 12.082031 -12.582031 12.1875 -12.921875 12.1875 -13.328125 C 12.1875 -13.929688 11.976562 -14.390625 11.5625 -14.703125 C 11.144531 -15.015625 10.457031 -15.171875 9.5 -15.171875 C 8.46875 -15.171875 7.484375 -14.941406 6.546875 -14.484375 C 5.617188 -14.023438 4.8125 -13.414062 4.125 -12.65625 L 3.78125 -12.65625 L 1.828125 -15.609375 C 2.773438 -16.648438 3.925781 -17.460938 5.28125 -18.046875 C 6.644531 -18.628906 8.128906 -18.921875 9.734375 -18.921875 C 12.191406 -18.921875 13.96875 -18.398438 15.0625 -17.359375 C 16.164062 -16.316406 16.71875 -14.835938 16.71875 -12.921875 L 16.71875 -4.84375 C 16.71875 -4.019531 17.082031 -3.609375 17.8125 -3.609375 C 18.09375 -3.609375 18.367188 -3.65625 18.640625 -3.75 L 18.875 -3.6875 L 19.21875 -0.4375 C 18.957031 -0.269531 18.59375 -0.128906 18.125 -0.015625 C 17.664062 0.0859375 17.164062 0.140625 16.625 0.140625 C 15.507812 0.140625 14.640625 -0.0703125 14.015625 -0.5 C 13.390625 -0.925781 12.941406 -1.597656 12.671875 -2.515625 L 12.328125 -2.546875 C 11.421875 -0.609375 9.722656 0.359375 7.234375 0.359375 Z M 8.71875 -3.125 C 9.800781 -3.125 10.664062 -3.484375 11.3125 -4.203125 C 11.957031 -4.929688 12.28125 -5.941406 12.28125 -7.234375 L 12.28125 -9.125 L 11.953125 -9.1875 C 11.671875 -8.96875 11.300781 -8.78125 10.84375 -8.625 C 10.394531 -8.476562 9.742188 -8.332031 8.890625 -8.1875 C 7.878906 -8.019531 7.148438 -7.726562 6.703125 -7.3125 C 6.265625 -6.90625 6.046875 -6.328125 6.046875 -5.578125 C 6.046875 -4.773438 6.28125 -4.164062 6.75 -3.75 C 7.21875 -3.332031 7.875 -3.125 8.71875 -3.125 Z M 8.71875 -3.125 " />
			</g>
		</g>
	</g>
	<g fill="#000000" fill-opacity="1">
		<g transform="translate(323.852906, 500.969284)">
			<g>
				<path
					d="M 9.625 7.875 C 6.5625 7.875 4.300781 7.425781 2.84375 6.53125 C 1.382812 5.632812 0.65625 4.382812 0.65625 2.78125 C 0.65625 1.800781 0.96875 1 1.59375 0.375 C 2.21875 -0.25 3.113281 -0.664062 4.28125 -0.875 L 4.28125 -1.234375 C 3.644531 -1.609375 3.191406 -2.03125 2.921875 -2.5 C 2.648438 -2.96875 2.515625 -3.507812 2.515625 -4.125 C 2.515625 -5.613281 3.484375 -6.617188 5.421875 -7.140625 L 5.421875 -7.5 C 4.421875 -8.070312 3.664062 -8.78125 3.15625 -9.625 C 2.65625 -10.46875 2.40625 -11.492188 2.40625 -12.703125 C 2.40625 -13.929688 2.6875 -15.015625 3.25 -15.953125 C 3.820312 -16.890625 4.65625 -17.617188 5.75 -18.140625 C 6.84375 -18.660156 8.15625 -18.921875 9.6875 -18.921875 C 11.226562 -18.921875 12.460938 -18.65625 13.390625 -18.125 C 13.960938 -18.945312 14.289062 -19.90625 14.375 -21 L 14.734375 -21.21875 L 18.078125 -20.390625 C 17.984375 -19.503906 17.726562 -18.757812 17.3125 -18.15625 C 16.894531 -17.5625 16.25 -17.023438 15.375 -16.546875 L 15.375 -16.1875 C 16.414062 -15.257812 16.9375 -13.972656 16.9375 -12.328125 C 16.9375 -11.179688 16.648438 -10.148438 16.078125 -9.234375 C 15.503906 -8.328125 14.671875 -7.609375 13.578125 -7.078125 C 12.484375 -6.554688 11.1875 -6.296875 9.6875 -6.296875 L 8.96875 -6.3125 C 8.519531 -6.332031 8.207031 -6.34375 8.03125 -6.34375 C 7.601562 -6.34375 7.269531 -6.226562 7.03125 -6 C 6.789062 -5.769531 6.671875 -5.476562 6.671875 -5.125 C 6.671875 -4.726562 6.828125 -4.421875 7.140625 -4.203125 C 7.453125 -3.984375 7.910156 -3.863281 8.515625 -3.84375 L 12.671875 -3.6875 C 16.785156 -3.5625 18.84375 -1.796875 18.84375 1.609375 C 18.84375 2.816406 18.535156 3.890625 17.921875 4.828125 C 17.304688 5.765625 16.3125 6.503906 14.9375 7.046875 C 13.570312 7.597656 11.800781 7.875 9.625 7.875 Z M 9.6875 -9.5625 C 10.582031 -9.5625 11.28125 -9.820312 11.78125 -10.34375 C 12.289062 -10.875 12.546875 -11.628906 12.546875 -12.609375 C 12.546875 -13.585938 12.289062 -14.335938 11.78125 -14.859375 C 11.28125 -15.378906 10.582031 -15.640625 9.6875 -15.640625 C 8.769531 -15.640625 8.066406 -15.378906 7.578125 -14.859375 C 7.085938 -14.335938 6.84375 -13.585938 6.84375 -12.609375 C 6.84375 -11.617188 7.085938 -10.863281 7.578125 -10.34375 C 8.066406 -9.820312 8.769531 -9.5625 9.6875 -9.5625 Z M 9.625 4.5 C 11.21875 4.5 12.375 4.273438 13.09375 3.828125 C 13.820312 3.378906 14.1875 2.796875 14.1875 2.078125 C 14.1875 1.492188 14 1.0625 13.625 0.78125 C 13.257812 0.507812 12.675781 0.363281 11.875 0.34375 L 8.203125 0.171875 C 8.078125 0.171875 7.957031 0.164062 7.84375 0.15625 C 7.738281 0.144531 7.640625 0.140625 7.546875 0.140625 C 6.753906 0.140625 6.15625 0.304688 5.75 0.640625 C 5.34375 0.972656 5.140625 1.4375 5.140625 2.03125 C 5.140625 2.820312 5.515625 3.429688 6.265625 3.859375 C 7.015625 4.285156 8.132812 4.5 9.625 4.5 Z M 9.625 4.5 " />
			</g>
		</g>
	</g>
	<g fill="#000000" fill-opacity="1">
		<g transform="translate(343.16179, 500.969284)">
			<g />
		</g>
	</g>
	<g fill="#000000" fill-opacity="1">
		<g transform="translate(351.292732, 500.969284)">
			<g>
				<path
					d="M 7.234375 0.359375 C 6.046875 0.359375 5.015625 0.140625 4.140625 -0.296875 C 3.265625 -0.734375 2.59375 -1.375 2.125 -2.21875 C 1.65625 -3.070312 1.421875 -4.09375 1.421875 -5.28125 C 1.421875 -6.382812 1.65625 -7.304688 2.125 -8.046875 C 2.59375 -8.796875 3.320312 -9.410156 4.3125 -9.890625 C 5.300781 -10.367188 6.59375 -10.738281 8.1875 -11 C 9.289062 -11.175781 10.128906 -11.367188 10.703125 -11.578125 C 11.285156 -11.796875 11.675781 -12.039062 11.875 -12.3125 C 12.082031 -12.582031 12.1875 -12.921875 12.1875 -13.328125 C 12.1875 -13.929688 11.976562 -14.390625 11.5625 -14.703125 C 11.144531 -15.015625 10.457031 -15.171875 9.5 -15.171875 C 8.46875 -15.171875 7.484375 -14.941406 6.546875 -14.484375 C 5.617188 -14.023438 4.8125 -13.414062 4.125 -12.65625 L 3.78125 -12.65625 L 1.828125 -15.609375 C 2.773438 -16.648438 3.925781 -17.460938 5.28125 -18.046875 C 6.644531 -18.628906 8.128906 -18.921875 9.734375 -18.921875 C 12.191406 -18.921875 13.96875 -18.398438 15.0625 -17.359375 C 16.164062 -16.316406 16.71875 -14.835938 16.71875 -12.921875 L 16.71875 -4.84375 C 16.71875 -4.019531 17.082031 -3.609375 17.8125 -3.609375 C 18.09375 -3.609375 18.367188 -3.65625 18.640625 -3.75 L 18.875 -3.6875 L 19.21875 -0.4375 C 18.957031 -0.269531 18.59375 -0.128906 18.125 -0.015625 C 17.664062 0.0859375 17.164062 0.140625 16.625 0.140625 C 15.507812 0.140625 14.640625 -0.0703125 14.015625 -0.5 C 13.390625 -0.925781 12.941406 -1.597656 12.671875 -2.515625 L 12.328125 -2.546875 C 11.421875 -0.609375 9.722656 0.359375 7.234375 0.359375 Z M 8.71875 -3.125 C 9.800781 -3.125 10.664062 -3.484375 11.3125 -4.203125 C 11.957031 -4.929688 12.28125 -5.941406 12.28125 -7.234375 L 12.28125 -9.125 L 11.953125 -9.1875 C 11.671875 -8.96875 11.300781 -8.78125 10.84375 -8.625 C 10.394531 -8.476562 9.742188 -8.332031 8.890625 -8.1875 C 7.878906 -8.019531 7.148438 -7.726562 6.703125 -7.3125 C 6.265625 -6.90625 6.046875 -6.328125 6.046875 -5.578125 C 6.046875 -4.773438 6.28125 -4.164062 6.75 -3.75 C 7.21875 -3.332031 7.875 -3.125 8.71875 -3.125 Z M 8.71875 -3.125 " />
			</g>
		</g>
	</g>
	<g fill="#000000" fill-opacity="1">
		<g transform="translate(370.870964, 500.969284)">
			<g>
				<path
					d="M 2.671875 0 L 2.671875 -18.578125 L 7.15625 -18.578125 L 7.15625 -15.84375 L 7.515625 -15.765625 C 8.671875 -17.867188 10.546875 -18.921875 13.140625 -18.921875 C 15.273438 -18.921875 16.84375 -18.335938 17.84375 -17.171875 C 18.851562 -16.003906 19.359375 -14.304688 19.359375 -12.078125 L 19.359375 0 L 14.703125 0 L 14.703125 -11.5 C 14.703125 -12.738281 14.453125 -13.628906 13.953125 -14.171875 C 13.460938 -14.710938 12.671875 -14.984375 11.578125 -14.984375 C 10.242188 -14.984375 9.203125 -14.550781 8.453125 -13.6875 C 7.710938 -12.820312 7.34375 -11.460938 7.34375 -9.609375 L 7.34375 0 Z M 2.671875 0 " />
			</g>
		</g>
	</g>
	<g fill="#000000" fill-opacity="1">
		<g transform="translate(392.620813, 500.969284)">
			<g>
				<path
					d="M 9.171875 0.359375 C 7.703125 0.359375 6.40625 0.00390625 5.28125 -0.703125 C 4.15625 -1.421875 3.269531 -2.5 2.625 -3.9375 C 1.988281 -5.382812 1.671875 -7.164062 1.671875 -9.28125 C 1.671875 -11.394531 2 -13.171875 2.65625 -14.609375 C 3.3125 -16.054688 4.21875 -17.132812 5.375 -17.84375 C 6.539062 -18.5625 7.882812 -18.921875 9.40625 -18.921875 C 10.5625 -18.921875 11.5625 -18.722656 12.40625 -18.328125 C 13.257812 -17.929688 13.976562 -17.3125 14.5625 -16.46875 L 14.921875 -16.546875 L 14.921875 -26.03125 L 19.578125 -26.03125 L 19.578125 0 L 14.921875 0 L 14.921875 -2.40625 L 14.5625 -2.46875 C 14.050781 -1.59375 13.34375 -0.898438 12.4375 -0.390625 C 11.539062 0.109375 10.453125 0.359375 9.171875 0.359375 Z M 10.6875 -3.609375 C 12 -3.609375 13.035156 -4.078125 13.796875 -5.015625 C 14.566406 -5.953125 14.953125 -7.375 14.953125 -9.28125 C 14.953125 -11.1875 14.566406 -12.609375 13.796875 -13.546875 C 13.035156 -14.492188 12 -14.96875 10.6875 -14.96875 C 9.320312 -14.96875 8.273438 -14.507812 7.546875 -13.59375 C 6.828125 -12.675781 6.46875 -11.238281 6.46875 -9.28125 C 6.46875 -7.320312 6.828125 -5.882812 7.546875 -4.96875 C 8.273438 -4.0625 9.320312 -3.609375 10.6875 -3.609375 Z M 10.6875 -3.609375 " />
			</g>
		</g>
	</g>
	<g fill="#000000" fill-opacity="1">
		<g transform="translate(414.875691, 500.969284)">
			<g />
		</g>
	</g>
	<g fill="#000000" fill-opacity="1">
		<g transform="translate(423.006624, 500.969284)">
			<g>
				<path
					d="M 12.0625 -24.625 C 16.050781 -24.625 19.097656 -23.585938 21.203125 -21.515625 C 23.304688 -19.453125 24.359375 -16.382812 24.359375 -12.3125 C 24.359375 -8.25 23.304688 -5.179688 21.203125 -3.109375 C 19.097656 -1.035156 16.050781 0 12.0625 0 L 3.203125 0 L 3.203125 -24.625 Z M 11.765625 -4.09375 C 14.304688 -4.09375 16.203125 -4.738281 17.453125 -6.03125 C 18.710938 -7.332031 19.34375 -9.425781 19.34375 -12.3125 C 19.34375 -15.195312 18.710938 -17.285156 17.453125 -18.578125 C 16.203125 -19.878906 14.304688 -20.53125 11.765625 -20.53125 L 8.0625 -20.53125 L 8.0625 -4.09375 Z M 11.765625 -4.09375 " />
			</g>
		</g>
	</g>
	<g fill="#000000" fill-opacity="1">
		<g transform="translate(449.318564, 500.969284)">
			<g>
				<path
					d="M 2.671875 0 L 2.671875 -18.578125 L 7.203125 -18.578125 L 7.203125 -15.8125 L 7.5625 -15.75 C 8.007812 -16.78125 8.597656 -17.535156 9.328125 -18.015625 C 10.054688 -18.492188 10.941406 -18.734375 11.984375 -18.734375 C 13.046875 -18.734375 13.847656 -18.554688 14.390625 -18.203125 L 13.609375 -14.171875 L 13.25 -14.109375 C 12.945312 -14.234375 12.65625 -14.320312 12.375 -14.375 C 12.09375 -14.4375 11.75 -14.46875 11.34375 -14.46875 C 10.039062 -14.46875 9.046875 -14.007812 8.359375 -13.09375 C 7.679688 -12.175781 7.34375 -10.707031 7.34375 -8.6875 L 7.34375 0 Z M 2.671875 0 " />
			</g>
		</g>
	</g>
	<g fill="#000000" fill-opacity="1">
		<g transform="translate(463.88018, 500.969284)">
			<g>
				<path
					d="M 10.796875 0.359375 C 8.972656 0.359375 7.375 -0.015625 6 -0.765625 C 4.625 -1.515625 3.554688 -2.609375 2.796875 -4.046875 C 2.046875 -5.492188 1.671875 -7.238281 1.671875 -9.28125 C 1.671875 -11.320312 2.046875 -13.066406 2.796875 -14.515625 C 3.554688 -15.960938 4.625 -17.054688 6 -17.796875 C 7.375 -18.546875 8.972656 -18.921875 10.796875 -18.921875 C 12.609375 -18.921875 14.203125 -18.546875 15.578125 -17.796875 C 16.953125 -17.054688 18.019531 -15.960938 18.78125 -14.515625 C 19.550781 -13.066406 19.9375 -11.320312 19.9375 -9.28125 C 19.9375 -7.238281 19.550781 -5.492188 18.78125 -4.046875 C 18.019531 -2.609375 16.953125 -1.515625 15.578125 -0.765625 C 14.203125 -0.015625 12.609375 0.359375 10.796875 0.359375 Z M 10.796875 -3.609375 C 13.679688 -3.609375 15.125 -5.5 15.125 -9.28125 C 15.125 -11.238281 14.75 -12.675781 14 -13.59375 C 13.257812 -14.507812 12.191406 -14.96875 10.796875 -14.96875 C 7.910156 -14.96875 6.46875 -13.070312 6.46875 -9.28125 C 6.46875 -5.5 7.910156 -3.609375 10.796875 -3.609375 Z M 10.796875 -3.609375 " />
			</g>
		</g>
	</g>
	<g fill="#000000" fill-opacity="1">
		<g transform="translate(485.461688, 500.969284)">
			<g>
				<path
					d="M 2.671875 7.53125 L 2.671875 -18.578125 L 7.34375 -18.578125 L 7.34375 -16.140625 L 7.6875 -16.078125 C 8.238281 -17.023438 8.972656 -17.734375 9.890625 -18.203125 C 10.816406 -18.679688 11.898438 -18.921875 13.140625 -18.921875 C 14.628906 -18.921875 15.929688 -18.566406 17.046875 -17.859375 C 18.160156 -17.148438 19.03125 -16.078125 19.65625 -14.640625 C 20.28125 -13.203125 20.59375 -11.414062 20.59375 -9.28125 C 20.59375 -7.15625 20.265625 -5.375 19.609375 -3.9375 C 18.953125 -2.5 18.039062 -1.421875 16.875 -0.703125 C 15.707031 0.00390625 14.359375 0.359375 12.828125 0.359375 C 11.671875 0.359375 10.671875 0.164062 9.828125 -0.21875 C 8.992188 -0.613281 8.28125 -1.21875 7.6875 -2.03125 L 7.34375 -1.96875 L 7.34375 7.53125 Z M 11.53125 -3.609375 C 12.925781 -3.609375 13.984375 -4.0625 14.703125 -4.96875 C 15.421875 -5.875 15.78125 -7.3125 15.78125 -9.28125 C 15.78125 -11.238281 15.421875 -12.675781 14.703125 -13.59375 C 13.984375 -14.507812 12.925781 -14.96875 11.53125 -14.96875 C 10.226562 -14.96875 9.195312 -14.492188 8.4375 -13.546875 C 7.675781 -12.609375 7.296875 -11.1875 7.296875 -9.28125 C 7.296875 -7.382812 7.675781 -5.960938 8.4375 -5.015625 C 9.195312 -4.078125 10.226562 -3.609375 11.53125 -3.609375 Z M 11.53125 -3.609375 " />
			</g>
		</g>
	</g>
	<g fill="#000000" fill-opacity="1">
		<g transform="translate(367.473623, 549.166658)">
			<g>
				<path
					d="M 10.796875 0.359375 C 8.972656 0.359375 7.375 -0.015625 6 -0.765625 C 4.625 -1.515625 3.554688 -2.609375 2.796875 -4.046875 C 2.046875 -5.492188 1.671875 -7.238281 1.671875 -9.28125 C 1.671875 -11.320312 2.046875 -13.066406 2.796875 -14.515625 C 3.554688 -15.960938 4.625 -17.054688 6 -17.796875 C 7.375 -18.546875 8.972656 -18.921875 10.796875 -18.921875 C 12.609375 -18.921875 14.203125 -18.546875 15.578125 -17.796875 C 16.953125 -17.054688 18.019531 -15.960938 18.78125 -14.515625 C 19.550781 -13.066406 19.9375 -11.320312 19.9375 -9.28125 C 19.9375 -7.238281 19.550781 -5.492188 18.78125 -4.046875 C 18.019531 -2.609375 16.953125 -1.515625 15.578125 -0.765625 C 14.203125 -0.015625 12.609375 0.359375 10.796875 0.359375 Z M 10.796875 -3.609375 C 13.679688 -3.609375 15.125 -5.5 15.125 -9.28125 C 15.125 -11.238281 14.75 -12.675781 14 -13.59375 C 13.257812 -14.507812 12.191406 -14.96875 10.796875 -14.96875 C 7.910156 -14.96875 6.46875 -13.070312 6.46875 -9.28125 C 6.46875 -5.5 7.910156 -3.609375 10.796875 -3.609375 Z M 10.796875 -3.609375 " />
			</g>
		</g>
	</g>
	<g fill="#000000" fill-opacity="1">
		<g transform="translate(389.05513, 549.166658)">
			<g>
				<path
					d="M 2.671875 0 L 2.671875 -18.578125 L 7.203125 -18.578125 L 7.203125 -15.8125 L 7.5625 -15.75 C 8.007812 -16.78125 8.597656 -17.535156 9.328125 -18.015625 C 10.054688 -18.492188 10.941406 -18.734375 11.984375 -18.734375 C 13.046875 -18.734375 13.847656 -18.554688 14.390625 -18.203125 L 13.609375 -14.171875 L 13.25 -14.109375 C 12.945312 -14.234375 12.65625 -14.320312 12.375 -14.375 C 12.09375 -14.4375 11.75 -14.46875 11.34375 -14.46875 C 10.039062 -14.46875 9.046875 -14.007812 8.359375 -13.09375 C 7.679688 -12.175781 7.34375 -10.707031 7.34375 -8.6875 L 7.34375 0 Z M 2.671875 0 " />
			</g>
		</g>
	</g>
	<g fill="#000000" fill-opacity="1">
		<g transform="translate(332.67564, 597.217439)">
			<g>
				<path
					d="M 10.90625 0.359375 C 9.207031 0.359375 7.691406 0.148438 6.359375 -0.265625 C 5.023438 -0.691406 3.914062 -1.25 3.03125 -1.9375 C 2.144531 -2.625 1.46875 -3.375 1 -4.1875 L 3.671875 -7.453125 L 4.09375 -7.453125 C 4.832031 -6.359375 5.769531 -5.484375 6.90625 -4.828125 C 8.050781 -4.179688 9.382812 -3.859375 10.90625 -3.859375 C 12.207031 -3.859375 13.1875 -4.128906 13.84375 -4.671875 C 14.507812 -5.222656 14.84375 -5.984375 14.84375 -6.953125 C 14.84375 -7.535156 14.738281 -8.023438 14.53125 -8.421875 C 14.320312 -8.816406 13.96875 -9.148438 13.46875 -9.421875 C 12.976562 -9.703125 12.3125 -9.945312 11.46875 -10.15625 L 8.296875 -10.875 C 6.085938 -11.382812 4.441406 -12.222656 3.359375 -13.390625 C 2.273438 -14.566406 1.734375 -16.09375 1.734375 -17.96875 C 1.734375 -19.351562 2.082031 -20.570312 2.78125 -21.625 C 3.476562 -22.6875 4.488281 -23.507812 5.8125 -24.09375 C 7.144531 -24.675781 8.738281 -24.96875 10.59375 -24.96875 C 12.488281 -24.96875 14.113281 -24.71875 15.46875 -24.21875 C 16.820312 -23.71875 17.960938 -22.953125 18.890625 -21.921875 L 16.484375 -18.625 L 16.0625 -18.625 C 15.363281 -19.351562 14.566406 -19.898438 13.671875 -20.265625 C 12.773438 -20.628906 11.75 -20.8125 10.59375 -20.8125 C 9.257812 -20.8125 8.242188 -20.570312 7.546875 -20.09375 C 6.847656 -19.625 6.5 -18.976562 6.5 -18.15625 C 6.5 -17.375 6.742188 -16.753906 7.234375 -16.296875 C 7.722656 -15.835938 8.566406 -15.476562 9.765625 -15.21875 L 13 -14.546875 C 15.382812 -14.046875 17.113281 -13.191406 18.1875 -11.984375 C 19.269531 -10.773438 19.8125 -9.195312 19.8125 -7.25 C 19.8125 -5.71875 19.476562 -4.378906 18.8125 -3.234375 C 18.15625 -2.097656 17.160156 -1.210938 15.828125 -0.578125 C 14.492188 0.046875 12.851562 0.359375 10.90625 0.359375 Z M 10.90625 0.359375 " />
			</g>
		</g>
	</g>
	<g fill="#000000" fill-opacity="1">
		<g transform="translate(353.819457, 597.217439)">
			<g>
				<path
					d="M 18.359375 -8.234375 L 6.421875 -8.234375 C 6.554688 -6.617188 7.015625 -5.441406 7.796875 -4.703125 C 8.578125 -3.972656 9.648438 -3.609375 11.015625 -3.609375 C 12.078125 -3.609375 12.9375 -3.804688 13.59375 -4.203125 C 14.257812 -4.597656 14.796875 -5.203125 15.203125 -6.015625 L 15.5625 -6.015625 L 18.65625 -4.03125 C 18.050781 -2.726562 17.132812 -1.671875 15.90625 -0.859375 C 14.6875 -0.046875 13.054688 0.359375 11.015625 0.359375 C 9.085938 0.359375 7.425781 -0.00390625 6.03125 -0.734375 C 4.632812 -1.460938 3.554688 -2.546875 2.796875 -3.984375 C 2.046875 -5.429688 1.671875 -7.195312 1.671875 -9.28125 C 1.671875 -11.382812 2.066406 -13.160156 2.859375 -14.609375 C 3.660156 -16.054688 4.738281 -17.132812 6.09375 -17.84375 C 7.445312 -18.5625 8.972656 -18.921875 10.671875 -18.921875 C 13.296875 -18.921875 15.304688 -18.222656 16.703125 -16.828125 C 18.109375 -15.441406 18.8125 -13.398438 18.8125 -10.703125 C 18.8125 -9.734375 18.773438 -8.976562 18.703125 -8.4375 Z M 14.34375 -11.25 C 14.300781 -12.664062 13.972656 -13.695312 13.359375 -14.34375 C 12.742188 -14.988281 11.847656 -15.3125 10.671875 -15.3125 C 8.316406 -15.3125 6.929688 -13.957031 6.515625 -11.25 Z M 14.34375 -11.25 " />
			</g>
		</g>
	</g>
	<g fill="#000000" fill-opacity="1">
		<g transform="translate(374.003721, 597.217439)">
			<g>
				<path
					d="M 7.71875 0.359375 C 6.039062 0.359375 4.757812 -0.09375 3.875 -1 C 3 -1.90625 2.5625 -3.28125 2.5625 -5.125 L 2.5625 -26.03125 L 7.21875 -26.03125 L 7.21875 -5.296875 C 7.21875 -4.171875 7.691406 -3.609375 8.640625 -3.609375 C 8.910156 -3.609375 9.195312 -3.648438 9.5 -3.734375 L 9.734375 -3.671875 L 10.15625 -0.078125 C 9.894531 0.0546875 9.550781 0.160156 9.125 0.234375 C 8.695312 0.316406 8.226562 0.359375 7.71875 0.359375 Z M 7.71875 0.359375 " />
			</g>
		</g>
	</g>
	<g fill="#000000" fill-opacity="1">
		<g transform="translate(384.676635, 597.217439)">
			<g>
				<path
					d="M 18.359375 -8.234375 L 6.421875 -8.234375 C 6.554688 -6.617188 7.015625 -5.441406 7.796875 -4.703125 C 8.578125 -3.972656 9.648438 -3.609375 11.015625 -3.609375 C 12.078125 -3.609375 12.9375 -3.804688 13.59375 -4.203125 C 14.257812 -4.597656 14.796875 -5.203125 15.203125 -6.015625 L 15.5625 -6.015625 L 18.65625 -4.03125 C 18.050781 -2.726562 17.132812 -1.671875 15.90625 -0.859375 C 14.6875 -0.046875 13.054688 0.359375 11.015625 0.359375 C 9.085938 0.359375 7.425781 -0.00390625 6.03125 -0.734375 C 4.632812 -1.460938 3.554688 -2.546875 2.796875 -3.984375 C 2.046875 -5.429688 1.671875 -7.195312 1.671875 -9.28125 C 1.671875 -11.382812 2.066406 -13.160156 2.859375 -14.609375 C 3.660156 -16.054688 4.738281 -17.132812 6.09375 -17.84375 C 7.445312 -18.5625 8.972656 -18.921875 10.671875 -18.921875 C 13.296875 -18.921875 15.304688 -18.222656 16.703125 -16.828125 C 18.109375 -15.441406 18.8125 -13.398438 18.8125 -10.703125 C 18.8125 -9.734375 18.773438 -8.976562 18.703125 -8.4375 Z M 14.34375 -11.25 C 14.300781 -12.664062 13.972656 -13.695312 13.359375 -14.34375 C 12.742188 -14.988281 11.847656 -15.3125 10.671875 -15.3125 C 8.316406 -15.3125 6.929688 -13.957031 6.515625 -11.25 Z M 14.34375 -11.25 " />
			</g>
		</g>
	</g>
	<g fill="#000000" fill-opacity="1">
		<g transform="translate(404.8609, 597.217439)">
			<g>
				<path
					d="M 10.828125 0.359375 C 9.023438 0.359375 7.429688 -0.015625 6.046875 -0.765625 C 4.671875 -1.515625 3.597656 -2.613281 2.828125 -4.0625 C 2.054688 -5.507812 1.671875 -7.25 1.671875 -9.28125 C 1.671875 -11.320312 2.054688 -13.066406 2.828125 -14.515625 C 3.597656 -15.960938 4.664062 -17.054688 6.03125 -17.796875 C 7.40625 -18.546875 8.976562 -18.921875 10.75 -18.921875 C 14.664062 -18.921875 17.171875 -17.503906 18.265625 -14.671875 L 15.0625 -12.375 L 14.71875 -12.375 C 14.332031 -13.25 13.832031 -13.898438 13.21875 -14.328125 C 12.613281 -14.753906 11.789062 -14.96875 10.75 -14.96875 C 9.394531 -14.96875 8.34375 -14.5 7.59375 -13.5625 C 6.84375 -12.632812 6.46875 -11.207031 6.46875 -9.28125 C 6.46875 -7.375 6.847656 -5.953125 7.609375 -5.015625 C 8.367188 -4.078125 9.441406 -3.609375 10.828125 -3.609375 C 11.835938 -3.609375 12.691406 -3.878906 13.390625 -4.421875 C 14.097656 -4.960938 14.601562 -5.742188 14.90625 -6.765625 L 15.25 -6.796875 L 18.578125 -4.984375 C 18.097656 -3.410156 17.222656 -2.125 15.953125 -1.125 C 14.679688 -0.132812 12.972656 0.359375 10.828125 0.359375 Z M 10.828125 0.359375 " />
			</g>
		</g>
	</g>
	<g fill="#000000" fill-opacity="1">
		<g transform="translate(424.001441, 597.217439)">
			<g>
				<path
					d="M 12.8125 -4.421875 L 14.03125 -0.984375 C 13.519531 -0.566406 12.882812 -0.238281 12.125 0 C 11.363281 0.238281 10.5 0.359375 9.53125 0.359375 C 7.519531 0.359375 5.992188 -0.1875 4.953125 -1.28125 C 3.910156 -2.382812 3.390625 -3.976562 3.390625 -6.0625 L 3.390625 -14.890625 L 0.5625 -14.890625 L 0.5625 -18.59375 L 3.390625 -18.59375 L 3.390625 -22.203125 L 8.046875 -22.96875 L 8.046875 -18.59375 L 13.3125 -18.59375 L 13.3125 -14.890625 L 8.046875 -14.890625 L 8.046875 -6.40625 C 8.046875 -5.476562 8.234375 -4.800781 8.609375 -4.375 C 8.992188 -3.957031 9.550781 -3.75 10.28125 -3.75 C 11.113281 -3.75 11.835938 -3.972656 12.453125 -4.421875 Z M 12.8125 -4.421875 " />
			</g>
		</g>
	</g>
</svg>